<?xml version="1.0" encoding="utf-8"?>
<!-- Generator: Adobe Illustrator 25.2.1, SVG Export Plug-In . SVG Version: 6.00 Build 0)  -->
<svg version="1.1" id="Camada_1" xmlns="http://www.w3.org/2000/svg" xmlns:xlink="http://www.w3.org/1999/xlink" x="0px" y="0px"
	 viewBox="0 0 16 16" style="enable-background:new 0 0 16 16;" xml:space="preserve">
<style type="text/css">
	.st0{fill:#FFFFFF;}
</style>
<path class="st0" d="M14.5,3C14.8,3,15,3.2,15,3.5v9c0,0.3-0.2,0.5-0.5,0.5h-13C1.2,13,1,12.8,1,12.5v-9C1,3.2,1.2,3,1.5,3H14.5z
	 M1.5,2C0.7,2,0,2.7,0,3.5v9C0,13.3,0.7,14,1.5,14h13c0.8,0,1.5-0.7,1.5-1.5v-9C16,2.7,15.3,2,14.5,2H1.5z"/>
<path class="st0" d="M5,8c0-0.3,0.2-0.5,0.5-0.5h7C12.8,7.5,13,7.7,13,8c0,0.3-0.2,0.5-0.5,0.5h-7C5.2,8.5,5,8.3,5,8z M5,5.5
	C5,5.2,5.2,5,5.5,5h7C12.8,5,13,5.2,13,5.5S12.8,6,12.5,6h-7C5.2,6,5,5.8,5,5.5z M5,10.5C5,10.2,5.2,10,5.5,10h7
	c0.3,0,0.5,0.2,0.5,0.5S12.8,11,12.5,11h-7C5.2,11,5,10.8,5,10.5z M4,5.5C4,5.8,3.8,6,3.5,6S3,5.8,3,5.5S3.2,5,3.5,5S4,5.2,4,5.5z
	 M4,8c0,0.3-0.2,0.5-0.5,0.5S3,8.3,3,8c0-0.3,0.2-0.5,0.5-0.5S4,7.7,4,8z M4,10.5C4,10.8,3.8,11,3.5,11S3,10.8,3,10.5S3.2,10,3.5,10
	S4,10.2,4,10.5z"/>
</svg>
