<?xml version="1.0" encoding="utf-8"?>
<!-- Generator: Adobe Illustrator 25.2.1, SVG Export Plug-In . SVG Version: 6.00 Build 0)  -->
<svg version="1.1" id="Camada_1" xmlns="http://www.w3.org/2000/svg" xmlns:xlink="http://www.w3.org/1999/xlink" x="0px" y="0px"
	 viewBox="0 0 595.3 595.3" style="enable-background:new 0 0 595.3 595.3;" xml:space="preserve">
<style type="text/css">
	.st0{fill:#FFFFFF;}
</style>
<g>
	<path class="st0" d="M595.3,290.1c0,5.4,0,10.8,0,16.2c-0.5,3.6-0.9,7.2-1.4,10.8c-1.7,13.6-2.5,27.3-5.3,40.7
		c-14.1,66.9-47.2,122.8-99.6,167c-45.8,38.7-98.8,61.3-158.5,67.9c-8.2,0.9-16.5,1.7-24.7,2.5c-5.4,0-10.9,0-16.3,0
		c-3.6-0.5-7.2-0.9-10.8-1.4c-13.6-1.7-27.4-2.5-40.7-5.3c-67-14.1-123.1-47.2-167.3-99.4C31.9,443.5,9.1,390.6,2.6,331
		c-0.9-8.2-1.7-16.5-2.6-24.7c0-5.4,0-10.8,0-16.2c0.5-3.8,0.9-7.6,1.4-11.4c1.7-13.4,2.5-26.9,5.3-40.1
		c14-66.3,46.4-122.2,98.4-165.8c73.5-61.5,158.3-83,252.2-64.9C424.9,20.9,481.1,55.3,525.4,108c38.4,45.7,61,98.5,67.4,157.9
		C593.6,274,594.4,282,595.3,290.1z M238.1,310.2c0,3.4,0,5.8,0,8.3c0,59.7,0.1,119.5-0.1,179.2c0,5.6,1.7,7.3,7.3,7.2
		c22.5-0.3,44.9-0.3,67.4,0c5.9,0.1,7.5-1.7,7.5-7.6c-0.2-59.7-0.1-119.5-0.1-179.2c0-2.4,0-4.9,0-8c2.8,0,4.9,0,7,0
		c13.6,0,27.1-0.1,40.7,0.1c4.2,0.1,5.6-1.3,6-5.5c1.1-13.5,2.8-26.9,4.2-40.3c0.8-7.6,1.3-15.2,2.1-23.5c-20.4,0-39.8,0-59.9,0
		c0-13.8-0.1-26.9,0-40c0.1-11.6,6-17.3,17.7-17.4c12.4-0.1,24.8-0.1,37.2,0c3.3,0,5.5-0.5,5.5-4.6c-0.1-19.5-0.1-39.1,0-58.6
		c0-3.2-1.2-4.6-4.5-4.5c-24,0.4-48.1-0.5-72,1.4c-32.3,2.6-56.5,24.8-62.4,57c-2.9,15.6-2.5,31.8-3.4,47.8
		c-0.3,6.1-0.1,12.2-0.1,19c-11.2,0-21.6,0.2-32-0.1c-4.7-0.1-6.4,1.3-6.4,6.2c0.2,18.9,0.3,37.9,0,56.8c-0.1,5.3,1.8,6.5,6.7,6.4
		C216.7,310,226.9,310.2,238.1,310.2z"/>
</g>
</svg>
