<?xml version="1.0" encoding="utf-8"?>
<!-- Generator: Adobe Illustrator 25.2.1, SVG Export Plug-In . SVG Version: 6.00 Build 0)  -->
<svg version="1.1" id="Camada_1" xmlns="http://www.w3.org/2000/svg" xmlns:xlink="http://www.w3.org/1999/xlink" x="0px" y="0px"
	 viewBox="0 0 595.3 595.3" style="enable-background:new 0 0 595.3 595.3;" xml:space="preserve">
<style type="text/css">
	.st0{fill:#FFFFFF;}
</style>
<g>
	<path class="st0" d="M297.7,150.1c24.2,0,48.4-0.2,72.6,0.1c8.1,0.1,16.3,1,24.2,2.8c29.4,6.7,48.4,28.3,51.9,58.4
		c0.8,6.7,1.2,13.4,1.2,20.2c0.1,45.2,0.4,90.5-0.2,135.7c-0.1,11.1-1.8,22.7-5.4,33.2c-9.1,27.2-29.8,41.7-57.6,43.2
		c-34.6,1.9-69.4,1.8-104.1,1.9c-23,0.1-46.1,0-69-1.7c-35.1-2.6-58.6-26.3-62.6-61.3c-0.7-6.1-1.1-12.3-1.1-18.4
		c-0.1-45.8-0.4-91.7,0.2-137.5c0.1-10.7,2-21.9,5.4-32c9.2-27.2,29.8-41.2,57.6-43.3c24.1-1.8,48.4-1.4,72.5-1.9
		c4.8-0.1,9.5,0,14.3,0C297.7,149.7,297.7,149.9,297.7,150.1z M394.4,298c0-53.9-42.9-97.1-96.4-97.1c-54-0.1-97.1,42.9-97.1,96.9
		c0,53.5,43.1,96.4,97,96.5C351,394.5,394.4,351.2,394.4,298z M394.7,182.1c-10.6,0.1-19.2,8.7-19.1,19.3c0,10.9,8.8,19.4,19.8,19.2
		c10.6-0.2,19.1-9,18.8-19.6C414.1,190.4,405.4,182,394.7,182.1z"/>
	<path class="st0" d="M298,0C133.8-0.2,0.2,133,0,297.1c-0.2,164.5,133.1,298.1,297.6,298.2c164.2,0,297.6-133.2,297.7-297.4
		C595.4,133.6,462.2,0.2,298,0z M481.5,368.5c0,16.2-2.4,32-8.2,47.2c-13.9,36.3-41.6,55.3-78.8,61.6c-9.9,1.7-20.1,2.2-30.2,2.3
		c-46.4,0.2-92.8,0.2-139.2,0c-17.6-0.1-34.8-2.9-51-9.9c-35.1-14.9-52.8-42.8-58.4-79.4c-1.3-8.4-1.6-17-1.7-25.5
		c-0.2-22.4-0.1-44.8-0.1-67.2c0.2,0,0.3,0,0.5,0c0-27.6-1.4-55.2,0.3-82.7c2.4-39.1,18.9-70.5,56.1-88
		c16.8-7.9,34.7-11.2,53.1-11.3c49.2-0.3,98.4-0.2,147.6,0c15.9,0.1,31.6,2.7,46.6,8.5c36.9,14.3,55.9,42.7,61.7,80.7
		c1.3,8.6,1.7,17.4,1.7,26.1C481.6,276.8,481.5,322.6,481.5,368.5z"/>
	<path class="st0" d="M360.1,297.7c0,34.6-27.9,62.4-62.4,62.4c-34.6,0-62.4-27.9-62.4-62.4c0-34.6,27.9-62.4,62.5-62.4
		C332.3,235.3,360.1,263.1,360.1,297.7z"/>
</g>
</svg>
