<?xml version="1.0" encoding="utf-8"?>
<!-- Generator: Adobe Illustrator 25.2.1, SVG Export Plug-In . SVG Version: 6.00 Build 0)  -->
<svg version="1.1" id="Camada_1" xmlns="http://www.w3.org/2000/svg" xmlns:xlink="http://www.w3.org/1999/xlink" x="0px" y="0px"
	 viewBox="0 0 300 287.8" style="enable-background:new 0 0 300 287.8;" xml:space="preserve">
<style type="text/css">
	.st0{fill-rule:evenodd;clip-rule:evenodd;fill:#00906A;}
</style>
<path class="st0" d="M93.6,208.7c0,20.6,3.3,41.1,10.2,59.6c1,2.6,1.7,5.2,2.8,7.5c2.2-1.5,20.2-17.9,23.4-21.1l22.1-22.4
	c1-1.1,1.5-1.8,2.6-2.9c1.1-1.1,1.6-1.6,2.6-2.9c1.5-1.9,3.8-3.9,5.4-5.9c10.8-12.9,19.8-23.5,30-37.1l18.4-26.1
	c1.5-2.3,2.9-4.4,4.4-6.6c7.5-11.3,14.4-23.2,21-35.2l5.7-10.7c0.7-1.4,1.4-2.5,2.1-3.8c1.3-2.4,2.4-4.8,3.6-7.3l9.8-21
	c0.5-1.1,0.5-1.1,1.9-1.1c-0.3,3.3-3.8,12.7-4.9,16c-0.9,2.7-1.7,5.2-2.6,7.7c-3.4,10.3-7.5,20.3-11.5,30.3
	c-3.4,8.5-7.1,17.2-11.1,25.5l-12.2,24.4c-7.6,15.1-14.7,26.1-23,40c-2.6,4.3-5.5,8.5-8.2,12.7c-1.4,2.1-2.7,4.1-4.1,6.2
	c-1.4,2.1-2.9,4.1-4.4,6.2c-4.2,6.2-8.7,12-13.2,18c-5.2,7-10.8,13.6-16.3,20.3l-4.9,5.7c-0.9,1-2,1.9-2.3,3.2
	c1.2-0.6,3.1-1.1,4.6-1.6c16.1-5.4,31.7-13.3,45.7-22.7c4.9-3.3,9.9-6.8,14.5-10.5c1.2-1,2.3-1.7,3.4-2.7c5.6-4.9,18.5-16,22.5-21.3
	l8.6-9.9c1-1.2,1.9-2.3,2.9-3.6c5.6-6.9,10.6-14.4,15.5-21.8c0.8-1.2,1.7-2.6,2.4-3.8l6.7-11.8c6.3-10.5,14.7-32,18.7-44
	c7.9-23.8,13.7-54.6,13.7-86.3c0-5-0.3-9-0.3-14.1c0-1.7-0.2-1.8-0.3-3.1c-0.1-1.2,0.1-2.5-0.1-3.7c-0.2-1.8-0.5-4.6-0.6-6.6
	c-0.2-3.6-0.9-15.5-3.3-18.2c-2.9-3.4-5.9-2-9.9-1.2c-13.3,2.8-30.7,8.9-43.3,13.9c-17.3,6.9-38.7,17.8-53.6,28.6
	c-1.4,1-2.5,1.7-3.8,2.7L163.5,63c-1.3,1-2,2-3.2,3c-4.9,3.9-13.1,12.8-17.3,17.6c-0.6,0.7-0.9,0.9-1.5,1.6l-8.6,10.6
	c-7.4,9.8-13.8,19.7-19.5,31.1l-7.8,17.5C97.6,164.6,93.6,186.5,93.6,208.7"/>
<path class="st0" d="M81.2,287.4c-0.8-1.6-1.1-1.4-2.1-2.7c-4.8-5.9-10.5-13.1-14.3-19.6c-9.8-16.4-11.7-20.3-19-39.2
	c-0.9-2.4-1.6-4.7-2.4-7.2c-2.7-8.3-8.3-31.8-8.3-40.6c1.7,0.1,1.4,0.8,1.9,2.5c3.2,10.3,5.1,13.4,8.7,22.4l4.5,8.9
	c2.7,4.4,4.7,8.5,8.2,14c3.5,5.5,7.3,10.3,11.2,15.5l12.6,14.1c1.6,1.6,2.9,2.9,4.4,4.5l4.9,4.4l-3.9-14.6c-1.4-6.7-3.5-16.9-4-24.1
	c-0.7-8.8-0.8-13.9-0.7-22.6L85,182c1.7-10.2,4.8-24.1,8.6-33.6c2.1-5.4,2.2-3.6-1.4-9.6c-3.7-6.1-9.1-13.3-13.6-18.9
	c-0.4-0.5-0.7-0.7-1.1-1.3l-10.1-11.1l-9.9-8.9c-1.7-1.4-3.3-2.8-5.1-4.1C38.5,84.3,34.5,82.2,20.3,75.1c-3.9-2-3.8-0.7-6.6,5.7
	c-3.5,8.1-6.9,19.5-8.9,28.4c-1.9,8.4-2,12.5-3.1,20.2C1.2,132.8,1.1,141,0.9,143c-0.4,2.8,0.3,5.7,0.2,8.8
	c-0.1,16.3,5.5,39.5,11.4,54.3c3.4,8.5,7.6,17.3,12.3,25c6.8,11,9,13.1,15.8,21.9l23.7,22.9C67.2,278.2,79,286.8,81.2,287.4"/>
</svg>
