<?xml version="1.0" encoding="utf-8"?>
<!-- Generator: Adobe Illustrator 25.2.1, SVG Export Plug-In . SVG Version: 6.00 Build 0)  -->
<svg version="1.1" id="Camada_1" xmlns="http://www.w3.org/2000/svg" xmlns:xlink="http://www.w3.org/1999/xlink" x="0px" y="0px"
	 viewBox="0 0 270 108" style="enable-background:new 0 0 270 108;" xml:space="preserve">
<style type="text/css">
	.st0{display:none;}
	.st1{display:inline;}
	.st2{fill:#00906A;}
</style>
<g>
	<g class="st0">
		<g class="st1">
			<path class="st2" d="M258.7,108H11.3C5.1,108,0,102.9,0,96.7v0c0-6.3,5.1-11.3,11.3-11.3h247.3c6.3,0,11.3,5.1,11.3,11.3v0
				C270,102.9,264.9,108,258.7,108z"/>
		</g>
		<g class="st1">
			<path class="st2" d="M258.7,22.7H11.3C5.1,22.7,0,17.6,0,11.3v0C0,5.1,5.1,0,11.3,0h247.3c6.3,0,11.3,5.1,11.3,11.3v0
				C270,17.6,264.9,22.7,258.7,22.7z"/>
		</g>
	</g>
	<g>
		<path class="st2" d="M255,108H15c-8.3,0-15-6.7-15-15v0c0-8.3,6.7-15,15-15h240c8.3,0,15,6.7,15,15v0C270,101.3,263.3,108,255,108
			z"/>
		<path class="st2" d="M255,30H15C6.7,30,0,23.3,0,15v0C0,6.7,6.7,0,15,0l240,0c8.3,0,15,6.7,15,15v0C270,23.3,263.3,30,255,30z"/>
	</g>
</g>
</svg>
