<?xml version="1.0" encoding="utf-8"?>
<!-- Generator: Adobe Illustrator 25.2.1, SVG Export Plug-In . SVG Version: 6.00 Build 0)  -->
<svg version="1.1" id="Camada_1" xmlns="http://www.w3.org/2000/svg" xmlns:xlink="http://www.w3.org/1999/xlink" x="0px" y="0px"
	 viewBox="0 0 554.6 150.6" style="enable-background:new 0 0 554.6 150.6;" xml:space="preserve">
<style type="text/css">
	.st0{fill-rule:evenodd;clip-rule:evenodd;fill:#FFFFFF;}
	.st1{fill:#FFFFFF;}
</style>
<g>
	<path class="st0" d="M56.7,105.7c0,9.7,1.5,19.3,4.8,28c0.5,1.2,0.8,2.4,1.3,3.5c1-0.7,9.5-8.4,11-9.9l10.4-10.5
		c0.5-0.5,0.7-0.9,1.2-1.4c0.5-0.5,0.8-0.8,1.2-1.3c0.7-0.9,1.8-1.8,2.5-2.8c5.1-6,9.3-11,14.1-17.4l8.6-12.2c0.7-1.1,1.4-2,2.1-3.1
		c3.5-5.3,6.7-10.9,9.8-16.5l2.7-5c0.3-0.6,0.7-1.2,1-1.8c0.6-1.1,1.1-2.2,1.7-3.4l4.6-9.9c0.2-0.5,0.2-0.5,0.9-0.5
		c-0.1,1.5-1.8,6-2.3,7.5c-0.4,1.3-0.8,2.4-1.2,3.6c-1.6,4.8-3.5,9.5-5.4,14.2c-1.6,4-3.3,8.1-5.2,12l-5.7,11.5
		c-3.5,7.1-6.9,12.2-10.8,18.7c-1.2,2-2.6,4-3.9,5.9c-0.6,1-1.3,1.9-1.9,2.9c-0.7,1-1.4,1.9-2.1,2.9c-2,2.9-4.1,5.6-6.2,8.4
		c-2.4,3.3-5.1,6.4-7.6,9.5l-2.3,2.7c-0.4,0.5-0.9,0.9-1.1,1.5c0.6-0.3,1.4-0.5,2.1-0.7c7.6-2.5,14.9-6.2,21.5-10.7
		c2.3-1.5,4.6-3.2,6.8-4.9c0.6-0.5,1.1-0.8,1.6-1.3c2.6-2.3,8.7-7.5,10.6-10l4.1-4.6c0.5-0.6,0.9-1.1,1.4-1.7
		c2.6-3.3,5-6.7,7.3-10.2c0.4-0.5,0.8-1.2,1.1-1.8l3.2-5.5c3-4.9,6.9-15,8.8-20.6c3.7-11.2,6.4-25.6,6.4-40.5c0-2.4-0.1-4.2-0.2-6.6
		c0-0.8-0.1-0.8-0.2-1.4c0-0.6,0-1.2,0-1.7c-0.1-0.8-0.3-2.2-0.3-3.1c-0.1-1.7-0.4-7.3-1.6-8.6c-1.4-1.6-2.8-1-4.7-0.6
		c-6.3,1.3-14.4,4.2-20.3,6.5c-8.1,3.2-18.2,8.4-25.1,13.4c-0.6,0.5-1.2,0.8-1.8,1.3l-9.9,7.9c-0.6,0.5-0.9,1-1.5,1.4
		c-2.3,1.8-6.2,6-8.1,8.3c-0.3,0.3-0.4,0.4-0.7,0.8l-4,5c-3.4,4.6-6.5,9.2-9.2,14.6l-3.7,8.2C58.6,85.1,56.7,95.3,56.7,105.7"/>
	<path class="st0" d="M50.9,142.7c-0.4-0.8-0.5-0.7-1-1.3c-2.2-2.8-4.9-6.2-6.7-9.2c-4.6-7.7-5.5-9.5-8.9-18.4
		c-0.4-1.1-0.8-2.2-1.1-3.4c-1.3-3.9-3.9-14.9-3.9-19.1c0.8,0.1,0.6,0.4,0.9,1.2c1.5,4.8,2.4,6.3,4.1,10.5l2.1,4.2
		c1.3,2.1,2.2,4,3.9,6.6c1.7,2.6,3.4,4.9,5.3,7.3l5.9,6.6c0.7,0.7,1.3,1.4,2.1,2.1l2.3,2l-1.8-6.9c-0.7-3.1-1.6-7.9-1.9-11.3
		c-0.3-4.1-0.4-6.5-0.3-10.6l1-10c0.8-4.8,2.3-11.3,4-15.7c1-2.5,1-1.7-0.6-4.5c-1.7-2.9-4.3-6.2-6.4-8.9c-0.2-0.3-0.3-0.3-0.5-0.6
		l-4.8-5.2l-4.7-4.2c-0.8-0.7-1.6-1.3-2.4-1.9c-6.5-4.8-8.3-5.8-15-9.1c-1.8-0.9-1.8-0.3-3.1,2.7c-1.6,3.8-3.2,9.2-4.2,13.3
		c-0.9,3.9-0.9,5.9-1.5,9.5c-0.2,1.6-0.2,5.4-0.4,6.4c-0.2,1.3,0.1,2.7,0.1,4.1c0,7.6,2.6,18.5,5.4,25.5c1.6,4,3.6,8.1,5.8,11.7
		c3.2,5.2,4.2,6.2,7.4,10.3L43,137.2C44.3,138.3,49.9,142.4,50.9,142.7"/>
	<polygon class="st0" points="50.9,142.7 50.9,142.8 51.1,142.7 	"/>
	<path class="st1" d="M511.1,48.2h14.4l8.3,13.4h-3.2l-12.2-12.1L506,61.6h-3.2L511.1,48.2z M532,86c-0.3-5.5-1.7-9.8-4.1-13
		c-2.4-3.2-5.5-4.8-9.4-4.8c-3.7,0-6.9,1.7-9.5,5c-2.6,3.4-4.1,7.6-4.6,12.8H532z M518.3,111.4c-4.7,0-8.9-1-12.6-2.9
		c-3.7-2-6.7-4.7-8.7-8.1c-2.1-3.5-3.1-7.4-3.1-11.8c0-4.4,1.1-8.4,3.2-11.8c2.1-3.5,5.1-6.2,8.9-8.1c3.8-2,8-2.9,12.8-2.9
		c4.5,0,8.5,0.9,11.9,2.8c3.5,1.9,6.1,4.6,8,8c1.9,3.5,2.8,7.5,2.8,12h-37v0.1c0,3.7,0.8,7,2.4,9.9c1.6,2.9,3.7,5.1,6.3,6.6
		c2.6,1.6,5.5,2.3,8.4,2.3c2.9,0,5.6-0.8,8.3-2.3c2.6-1.5,4.9-3.8,6.7-6.8l3,2.2c-1.9,3.3-4.8,5.9-8.6,7.8
		C527,110.5,522.8,111.4,518.3,111.4z M472.8,66.7h10.2v43.9h-10.2V66.7z M477.7,59c-1.7,0-3.2-0.6-4.4-1.9
		c-1.2-1.2-1.9-2.7-1.9-4.4c0-1.7,0.6-3.2,1.9-4.4c1.2-1.2,2.7-1.9,4.4-1.9c1.7,0,3.2,0.6,4.4,1.9c1.2,1.2,1.9,2.7,1.9,4.4
		c0,1.7-0.6,3.2-1.9,4.4C480.9,58.4,479.4,59,477.7,59z M448.1,42.6l10.2-3.7v71.8h-10.2V42.6z M421.6,42.6l10.2-3.7v71.8h-10.2
		V42.6z M377.4,111.6c-6,0-10.4-1.6-13.1-4.9c-2.8-3.3-4.1-8.4-4.1-15.3V66.7h10.2v24.7c0,6.1,0.7,10.5,2.1,13.1c1.4,2.6,3.7,4,7,4
		c2.4,0,4.9-0.8,7.4-2.4c2.5-1.6,4.7-4,6.6-7.1c1.9-3.1,2.9-6.9,3.2-11.3v-21h10.2v43.9h-9.9V99.8c-2.3,3.7-5,6.6-8.3,8.7
		C385.2,110.6,381.5,111.6,377.4,111.6z M340,111.7c-3.6,0-6.2-1-7.8-2.9c-1.5-1.9-2.3-5.1-2.3-9.6V69.4h-5v-2.6h5V49.4l10.2-3.7v21
		h10.6v2.6h-10.6V94l-0.1,8.4c0,2.3,0.1,3.9,0.4,5c0.3,1,0.8,1.7,1.7,1.9c0.9,0.2,2-0.1,3.3-0.8c1.3-0.7,2.5-1.9,3.7-3.5l1.6,1.3
		c-1.2,1.7-2.8,3-4.7,4.1C343.9,111.2,342,111.7,340,111.7z M291.5,108.6c1.7,0,3.6-0.6,5.7-1.7c2.1-1.1,3.9-3,5.6-5.8
		s2.4-6.5,2.4-11.3v-2.1c0-4.8-0.8-8.6-2.4-11.5c-1.6-2.9-3.5-5-5.7-6.2c-2.2-1.2-4.2-1.9-6-1.9c-4.2,0-7.5,2-9.7,5.9
		c-2.2,3.9-3.4,8.6-3.4,14.1c0,3.5,0.5,6.7,1.6,9.9c1.1,3.1,2.6,5.7,4.7,7.6C286.3,107.6,288.7,108.6,291.5,108.6z M289.6,111.6
		c-4.8,0-8.9-1.1-12.3-3.3c-3.4-2.2-5.9-5-7.5-8.5s-2.5-7.2-2.5-11.1c0-4.6,0.9-8.6,2.8-12.1c1.9-3.5,4.5-6.2,7.9-8.1
		c3.4-1.9,7.3-2.9,11.7-2.9c3.3,0,6.3,0.6,9,1.9c2.7,1.3,4.9,3,6.8,5.2v-6.1h9.9v43.9h-10.2v-6.2
		C301.2,109.2,295.9,111.6,289.6,111.6z M198.1,42.3h10.2L253,98.1V42.3h2.6v68.4h-4.7l-50.2-62.2v62.2h-2.6V42.3z"/>
	<path class="st1" d="M523.1,140.2l1.1-1.5c0.1,0.1,0.3,0.3,0.6,0.5c0.2,0.2,0.8,0.4,1.6,0.7c0.8,0.3,1.7,0.5,2.7,0.5
		c1.4,0,2.5-0.3,3.2-0.8c0.7-0.5,1-1.2,1-2.1c0-0.8-0.3-1.4-0.9-1.9c-0.6-0.5-1.8-1-3.5-1.5c-2-0.6-3.5-1.3-4.3-2
		c-0.9-0.7-1.3-1.7-1.3-3c0-1.4,0.5-2.5,1.6-3.3c1.1-0.8,2.5-1.2,4.4-1.2c0.7,0,1.4,0.1,2.1,0.2c0.7,0.1,1.2,0.2,1.6,0.4
		c0.4,0.2,0.8,0.3,1.1,0.5c0.3,0.2,0.5,0.3,0.6,0.4l0.2,0.2l-1.1,1.6c-0.1-0.1-0.3-0.2-0.5-0.4c-0.2-0.2-0.7-0.4-1.5-0.6
		c-0.8-0.3-1.6-0.4-2.5-0.4c-1.2,0-2.2,0.2-2.9,0.7s-1.1,1.1-1.1,2c0,0.7,0.3,1.3,0.9,1.7s1.8,0.9,3.5,1.4c2.1,0.6,3.6,1.3,4.4,2.1
		c0.8,0.8,1.2,1.9,1.2,3.2c0,1.4-0.5,2.6-1.6,3.5c-1.1,0.9-2.6,1.3-4.6,1.3c-0.8,0-1.5-0.1-2.2-0.2c-0.7-0.1-1.3-0.3-1.7-0.5
		c-0.4-0.2-0.8-0.4-1.2-0.6c-0.3-0.2-0.6-0.4-0.7-0.5L523.1,140.2z M514.3,124.9v17h-2v-17H514.3z M496.4,127.4l-3.8,8.8h7.5
		L496.4,127.4z M497.3,124.9l7.3,17h-2l-1.6-3.8h-9.1l-1.6,3.8h-2l7.3-17H497.3z M479.4,130.6c0-1.3-0.4-2.3-1.2-2.9
		c-0.8-0.7-1.9-1-3.3-1h-4.6v7.7h4.9c1.3,0,2.3-0.3,3.1-0.9C479,132.8,479.4,131.9,479.4,130.6z M468.3,124.9h6.7
		c2,0,3.6,0.5,4.8,1.5c1.1,1,1.7,2.4,1.7,4.2c0,1.4-0.3,2.5-1,3.4c-0.7,0.9-1.6,1.6-2.8,1.9v0.1l4.2,5.4v0.5h-2.1l-4.4-5.6h-5.1v5.6
		h-2V124.9z M451.9,142.3c-2.1,0-3.8-0.7-5-2.1c-1.2-1.4-1.8-3.2-1.8-5.4v-9.9h2v9.9c0,1.7,0.4,3.1,1.2,4.1c0.8,1,2,1.5,3.6,1.5
		c1.6,0,2.8-0.5,3.6-1.5c0.8-1,1.2-2.4,1.2-4.1v-9.9h2v9.9c0,2.3-0.6,4.1-1.8,5.4C455.7,141.6,454,142.3,451.9,142.3z M423.7,126.7
		v-1.8H437v1.8h-5.7v15.1h-2v-15.1H423.7z M411.2,127.4l-3.8,8.8h7.5L411.2,127.4z M412,124.9l7.3,17h-2l-1.6-3.8h-9.1l-1.6,3.8h-2
		l7.3-17H412z M395.2,124.9v17h-1.4L383,128.4v13.5h-2v-17h1.4l10.8,13.4v-13.4H395.2z M353.9,140.2l1.1-1.5
		c0.1,0.1,0.3,0.3,0.6,0.5c0.2,0.2,0.8,0.4,1.6,0.7c0.8,0.3,1.7,0.5,2.7,0.5c1.4,0,2.5-0.3,3.2-0.8c0.7-0.5,1-1.2,1-2.1
		c0-0.8-0.3-1.4-0.9-1.9c-0.6-0.5-1.8-1-3.5-1.5c-2-0.6-3.5-1.3-4.3-2c-0.9-0.7-1.3-1.7-1.3-3c0-1.4,0.5-2.5,1.6-3.3
		c1.1-0.8,2.5-1.2,4.4-1.2c0.7,0,1.4,0.1,2.1,0.2c0.7,0.1,1.2,0.2,1.6,0.4c0.4,0.2,0.8,0.3,1.1,0.5s0.5,0.3,0.6,0.4l0.2,0.2
		l-1.1,1.6c-0.1-0.1-0.3-0.2-0.5-0.4c-0.2-0.2-0.7-0.4-1.5-0.6c-0.8-0.3-1.6-0.4-2.5-0.4c-1.2,0-2.2,0.2-2.9,0.7s-1.1,1.1-1.1,2
		c0,0.7,0.3,1.3,0.9,1.7c0.6,0.4,1.8,0.9,3.5,1.4c2.1,0.6,3.6,1.3,4.4,2.1c0.8,0.8,1.2,1.9,1.2,3.2c0,1.4-0.5,2.6-1.6,3.5
		c-1.1,0.9-2.6,1.3-4.6,1.3c-0.8,0-1.5-0.1-2.2-0.2c-0.7-0.1-1.3-0.3-1.7-0.5c-0.4-0.2-0.8-0.4-1.2-0.6c-0.3-0.2-0.6-0.4-0.7-0.5
		L353.9,140.2z M337.9,140.4c1.9,0,3.5-0.7,4.6-2c1.2-1.3,1.8-3,1.8-5c0-2-0.6-3.6-1.8-5c-1.2-1.3-2.7-2-4.6-2c-1.9,0-3.4,0.7-4.6,2
		c-1.2,1.3-1.7,3-1.7,5c0,2,0.6,3.6,1.7,5C334.4,139.7,336,140.4,337.9,140.4z M337.9,142.3c-2.5,0-4.5-0.8-6.1-2.5
		c-1.5-1.7-2.3-3.8-2.3-6.3c0-2.5,0.8-4.7,2.3-6.4c1.5-1.7,3.6-2.5,6.1-2.5c2.5,0,4.6,0.8,6.1,2.5c1.5,1.7,2.3,3.8,2.3,6.4
		c0,2.5-0.8,4.6-2.3,6.3C342.4,141.4,340.4,142.3,337.9,142.3z M309.8,126.7v-1.8H323v1.8h-5.7v15.1h-2v-15.1H309.8z M294.9,142.3
		c-2.1,0-3.8-0.7-5-2.1c-1.2-1.4-1.8-3.2-1.8-5.4v-9.9h2v9.9c0,1.7,0.4,3.1,1.2,4.1c0.8,1,2,1.5,3.6,1.5c1.6,0,2.8-0.5,3.6-1.5
		c0.8-1,1.2-2.4,1.2-4.1v-9.9h2v9.9c0,2.3-0.6,4.1-1.8,5.4C298.7,141.6,297.1,142.3,294.9,142.3z M270.8,126.7h-3.6V140h3.6
		c2,0,3.6-0.6,4.8-1.8c1.3-1.2,1.9-2.8,1.9-4.9c0-2-0.6-3.7-1.9-4.9C274.4,127.3,272.8,126.7,270.8,126.7z M277.2,127.2
		c1.6,1.5,2.4,3.6,2.4,6.2c0,2.6-0.8,4.6-2.4,6.2c-1.6,1.5-3.7,2.3-6.3,2.3h-5.7v-17h5.7C273.5,124.9,275.6,125.6,277.2,127.2z
		 M248.1,140.4c1.9,0,3.5-0.7,4.6-2c1.2-1.3,1.8-3,1.8-5c0-2-0.6-3.6-1.8-5c-1.2-1.3-2.7-2-4.6-2c-1.9,0-3.4,0.7-4.6,2
		c-1.2,1.3-1.7,3-1.7,5c0,2,0.6,3.6,1.7,5C244.7,139.7,246.2,140.4,248.1,140.4z M248.1,142.3c-2.5,0-4.5-0.8-6.1-2.5
		c-1.5-1.7-2.3-3.8-2.3-6.3c0-2.5,0.8-4.7,2.3-6.4c1.5-1.7,3.6-2.5,6.1-2.5c2.5,0,4.6,0.8,6.1,2.5c1.5,1.7,2.3,3.8,2.3,6.4
		c0,2.5-0.8,4.6-2.3,6.3C252.7,141.4,250.6,142.3,248.1,142.3z M229.8,130.6c0-1.3-0.4-2.3-1.2-2.9c-0.8-0.7-1.9-1-3.3-1h-4.6v7.7
		h4.9c1.3,0,2.3-0.3,3.1-0.9C229.4,132.8,229.8,131.9,229.8,130.6z M218.7,124.9h6.7c2,0,3.6,0.5,4.8,1.5c1.1,1,1.7,2.4,1.7,4.2
		c0,1.4-0.3,2.5-1,3.4c-0.7,0.9-1.6,1.6-2.8,1.9v0.1l4.2,5.4v0.5h-2.1l-4.4-5.6h-5.1v5.6h-2V124.9z M208.3,130.6
		c0-1.3-0.4-2.3-1.2-2.9c-0.8-0.7-1.9-1-3.3-1h-4.6v7.9h4.6C206.8,134.6,208.3,133.3,208.3,130.6z M203.8,124.9c2,0,3.6,0.5,4.8,1.5
		c1.1,1,1.7,2.4,1.7,4.2c0,1.9-0.6,3.3-1.8,4.4c-1.2,1-2.8,1.5-4.8,1.5h-4.6v5.4h-2v-17H203.8z"/>
</g>
</svg>
