<?xml version="1.0" encoding="utf-8"?>
<!-- Generator: Adobe Illustrator 25.2.1, SVG Export Plug-In . SVG Version: 6.00 Build 0)  -->
<svg version="1.1" id="Camada_1" xmlns="http://www.w3.org/2000/svg" xmlns:xlink="http://www.w3.org/1999/xlink" x="0px" y="0px"
	 viewBox="0 0 595.3 595.3" style="enable-background:new 0 0 595.3 595.3;" xml:space="preserve">
<style type="text/css">
	.st0{fill:#FFFFFF;stroke:#000000;stroke-miterlimit:10;}
	.st1{fill:#00906A;}
</style>
<path class="st0" d="M189,70.9l147-15l72,43l85,68l20,101l-22,143l-58,117l-170,21l-92-60l-63,13c0,0-29-67-29-70s21-72,21-72
	l-54-184L189,70.9z"/>
<g>
	<path class="st1" d="M0,308c0-7,0-14,0-20.9c0.5-3,0.9-6.1,1.3-9.1c1.8-13.6,2.6-27.4,5.5-40.8c17.9-83,63-147.5,134.9-192.5
		C206.4,4.3,277.1-8.4,351.9,5.1c69.2,12.5,127.2,46.1,172.4,100c60,71.4,81.6,154,66,245.7c-9.2,54.5-33.1,102.6-70.1,143.8
		c-50.7,56.5-113.9,89.5-189.5,98.2c-7.5,0.9-14.9,1.7-22.4,2.5c-7,0-14,0-20.9,0c-3-0.5-6.1-0.9-9.1-1.4
		c-13.8-1.9-27.8-2.8-41.3-5.7c-72.2-15.2-130.9-52.5-175.8-111C27.9,433.9,8.3,384.8,2.5,330.4C1.7,322.9,0.8,315.4,0,308z
		 M298.2,109.9c-12.1,1.5-24.3,2.3-36.2,4.6c-81.3,15.8-146,85.6-149.3,175.9c-1.1,29.7,5.2,58,17.7,85c1.3,2.7,1.7,6.4,1.1,9.3
		c-5.8,29.2-11.9,58.3-17.8,87.5c-1.9,9.4,2.4,13.2,11.7,10.9c28.2-6.7,56.4-13.5,84.6-19.9c3.2-0.7,7.3-0.3,10.4,1
		c36.1,16.1,73.5,20.8,112.3,13.6c99.4-18.4,165.7-115.5,147.2-215.6C463.6,174.4,387.7,111.1,298.2,109.9z"/>
	<path class="st1" d="M164.3,431c3.5-16.9,6.6-32.9,10.1-48.7c1.3-5.6,1-10.3-1.9-15.4c-8.9-15.6-15.2-32.4-17.1-50.2
		c-6.7-60.1,14.3-108.6,65-141.8c84.8-55.5,199.4-6.2,219.1,93.3c15.6,78.9-38.1,157-116.8,169.6c-32.1,5.2-62.9,0.7-91.7-14.7
		c-7.2-3.9-13.7-4.5-21.4-2.4c-13.2,3.6-26.7,6.5-40,9.6C168,430.7,166.5,430.8,164.3,431z M346,386.9c5.9-0.9,11.9-1.3,17.7-2.8
		c14.5-3.8,23.2-14.8,31-26.6c6.2-9.3,2.5-19.1-8.4-22.4c-11.1-3.4-22.3-6.5-33.4-9.5c-5.8-1.6-11.1-0.5-15.4,4
		c-1.9,2-3.8,3.9-5.7,5.8c-7.3,7.3-11.6,8.2-20.6,2.8c-21-12.5-39-28.6-54.1-47.9c-6.1-7.8-5.7-12.3,0.5-20.3c2-2.6,4.8-5,5.7-8
		c1.3-4.2,2.8-9.4,1.5-13.1c-4.3-11.8-9.7-23.2-15.1-34.5c-4.2-8.8-13.8-10.8-21.4-4.5c-4.6,3.8-8.8,8.2-12.7,12.7
		c-7.7,9-11.5,19.4-11.1,31.5c0.5,14.9,4.9,28.6,12.4,41.2c18.4,31,44.1,54.7,74.5,73.6C307.9,379.4,325.9,386,346,386.9z"/>
</g>
</svg>
